<svg xmlns="http://www.w3.org/2000/svg" fill="none" viewBox="0 0 646 854" width="133" height="175"><path fill="#000" d="M140.6.2c-8 1.3-17.5 5.5-24.2 10.6-20.5 15.6-36.3 48.5-43 89.5-2.5 15.5-4.2 37-4.2 53.4 0 19.4 2.3 44.2 5.5 61.3.8 3.8 1.1 7.2.8 7.4l-6.6 5.4A189.4 189.4 0 0 0 1.7 347.3c-1.8 12-2.3 36.3-.8 48.3a160.7 160.7 0 0 0 25.8 72.6l4.7 6.9-1.4 2.2A191.9 191.9 0 0 0 8.5 539c-3 17.6-3.3 22.3-3.3 46 0 23.8.3 28.6 3 45a187 187 0 0 0 18 54.6 135 135 0 0 0 9.4 14.5c.2 0-.5 2.4-1.7 5-8.8 19.3-16.4 45-19.5 66.6A184.7 184.7 0 0 0 12 806c0 19.9 1.1 29.6 5.3 45.5l.6 2.3h52.5l-1.7-3.3C58 831 57 794.5 66.1 758.2a192 192 0 0 1 17.8-46.1l5.2-10.3v-6.3c0-6 0-6.6-2-10.5-1.5-3-3.4-5.4-7-8.9a61.9 61.9 0 0 1-13.6-19.3c-15-32.7-18-81.3-7.4-122.8a102.2 102.2 0 0 1 19.4-41 28 28 0 0 0 7.9-18.9 26 26 0 0 0-8-18.6 111.6 111.6 0 0 1-29-61.5c-5-34.1 4-71.3 24.5-100.8a120 120 0 0 1 79.6-52.5c7-1.1 20.2-1 27.6.4 8 1.4 13 1 18.2-1.5 6.4-3 9.6-6.7 13.3-15.3a76.3 76.3 0 0 1 12.8-20.5 139.9 139.9 0 0 1 77.4-46c6-1.1 8.9-1.3 20.2-1.3 11.3 0 14.2.2 20.2 1.4 24.5 5 48.8 17.6 68.1 35.5 4.2 3.9 14.2 16.2 17.4 21.4 1.2 2 3.4 6.3 4.7 9.5 3.7 8.6 7 12.3 13.3 15.3a28 28 0 0 0 18 1.6c12.1-2 21.5-1.9 33.4.6 40.7 8.2 76.2 41.7 91.9 86.6 13.6 39.5 9.8 80.7-10.6 112.2a97.5 97.5 0 0 1-11.8 15c-10.7 11.4-10.7 25.6 0 37.4 17.5 19.2 28.4 66.4 25.1 108-2.2 27.5-9.2 52-19 66a74.6 74.6 0 0 1-7.9 9.1c-3.5 3.5-5.4 6-7 9-1.8 3.8-2 4.5-2 10.4v6.3l5.3 10.3c8.9 17 13.6 29.3 17.8 46 9 36 8.2 71.6-2.1 91.9a30 30 0 0 0-1.6 3.5c0 .2 11.7.3 26 .3h26l.7-2.6 1.3-4.8c.7-2.7 2-10.7 3.1-18.4 1-7.7 1-36.1 0-44.7-4-31.1-10.5-55.8-21.2-79.2-1.2-2.6-1.9-5-1.7-5 .3-.2 2-2.7 3.9-5.4 13.4-20.3 21.6-45.7 25.7-79.3 1.2-9.2 1.2-49 0-58a229.4 229.4 0 0 0-12.3-54.2c-2.5-6.5-9-20.4-11.7-24.9l-1.4-2.2 4.7-7a160.7 160.7 0 0 0 25.8-72.5c1.5-12 1-36.3-.8-48.3a189.5 189.5 0 0 0-73.8-124.9c-.3-.3 0-3.6.8-7.4 7.4-38.7 7.1-87-.6-124.6-6.8-32.9-19-59-34.9-74.1a51.6 51.6 0 0 0-41-16.2c-35.3 2.1-64 42.9-75.2 107.1a242 242 0 0 0-3.4 25.8c0 1.3-.3 2.3-.6 2.3a34 34 0 0 1-5.2-2.7 172.8 172.8 0 0 0-87.4-24.8 173 173 0 0 0-87.4 24.8 34 34 0 0 1-5.2 2.7c-.3 0-.6-1-.6-2.3 0-3.4-1.6-16-3.4-25.8-10.2-57.7-33.7-95.9-65-105.5A74.6 74.6 0 0 0 140.7.2Zm10.5 50c8.8 7 18.6 27 24.2 49.3a204 204 0 0 1 4 18.7c2.3 13 3.4 27 3.6 44.1v16.9l-4.2 6.2-4.2 6.3h-9.9c-11.5 0-23 1.5-34 4.5l-8.4 2.1c-1.2.2-1.4-.1-2-5.1a297 297 0 0 1 .5-82.7c4.4-28 14.7-53.4 24.8-60.9 2.4-1.7 2.8-1.7 5.6.5Zm349.5-.5c6 4.5 12.7 16.4 17.7 31.6 10 30.4 12.8 72.1 7.5 111.9-.6 5-.8 5.3-2 5.1l-8.4-2.1c-11-3-22.5-4.5-34-4.5h-9.9l-4.2-6.3-4.2-6.2v-16.9c.2-23.8 2.4-42.3 7.6-63 5.6-22.2 15.5-42.2 24.2-49.2 2.8-2.2 3.2-2.2 5.7-.4Z"/><path fill="#000" d="M313.5 358.2a194 194 0 0 0-23.3 3.1c-10.4 2.1-24.2 7-33.8 11.6-33.5 16.4-56.6 43.7-63.6 75.3a66.3 66.3 0 0 0-1.6 18.8 69 69 0 0 0 1.5 18.7c9.4 41.2 47.4 71.7 96.6 77.3a651 651 0 0 0 67.4 0c39.5-4.5 73.5-25.9 88.7-56 4-8 6-13.2 7.9-21.3 1.3-6 1.5-8.2 1.5-18.7s-.2-12.6-1.6-18.8c-10.2-45.9-54.7-82-109.3-88.9a233 233 0 0 0-30.4-1Zm23 33.4c18.1 2 36.5 8.4 51.2 18.3 7.9 5.2 19 16.3 23.8 23.5a67 67 0 0 1 10.8 29.2c.7 5 .3 9-1.5 17.1a62.8 62.8 0 0 1-24 34 104.4 104.4 0 0 1-24.5 12.4c-13.6 4.4-22.5 5.2-54.2 5a164 164 0 0 1-30.3-1.5 85.7 85.7 0 0 1-48-24.2c-9.5-10-13.8-19-16.1-33.7-1-6.8 1-18 4.9-27.6a88.6 88.6 0 0 1 29.7-34.2 117.8 117.8 0 0 1 78.1-18.3Z"/><path fill="#000" d="M299.6 436.3c-4.7 2.5-8 9-7 13.6 1.2 5.1 5.6 10.3 12.6 14.5 3.8 2.3 4 2.6 4.2 4.9.1 1.3-.4 5.2-1 8.6-.8 3.4-1.3 7-1.3 8 0 2.5 2.5 6.8 5 9 2.3 1.8 2.7 1.8 9.1 2 5.8.2 7 0 9.4-1 6-3 7.5-8.4 5.3-18.7-1.8-8.7-1.4-10 3.2-12.7a32 32 0 0 0 11.5-11.1 13 13 0 0 0-6.3-17.1 14 14 0 0 0-6.4-1.2c-4.5 0-7.4 1-12.6 4.4l-3 2-2-1.2c-7.7-4.6-9.1-5.2-13.9-5.1a14 14 0 0 0-6.8 1.1Zm-148.9-71.1a35.9 35.9 0 0 0-23 22.7c-2 5.4-3 14-2.2 18.5 2 11 11 21 21.3 23.7 12.8 3.4 22.5 1.2 31-7.3 5-4.8 7.6-9 10.3-15.9 2-4.8 2.1-5.7 2.1-12.6V387l-2.5-5.3a31.8 31.8 0 0 0-20.1-16.8 36.3 36.3 0 0 0-16.9.3Zm327.5-.2a31.8 31.8 0 0 0-20 16.7l-2.5 5.3v7.3c0 7 .2 7.8 2.2 12.6a40.7 40.7 0 0 0 10.3 16c8.5 8.4 18.2 10.6 31 7.2 7.5-2 14.9-8.2 18.4-15.5a27 27 0 0 0 2.9-17.7c-2.3-16.1-11.8-27.8-25.8-32-4.1-1.1-12-1.1-16.5 0Z"/></svg>