<svg width="32" height="32" viewBox="0 0 32 32" fill="none" xmlns="http://www.w3.org/2000/svg">
<g clip-path="url(#clip0_202_1460)">
<path d="M5.21875 16.125C5.21875 13.0156 6.20312 10.3906 8.17188 8.25C10.1562 6.09375 12.7031 5.01562 15.8125 5.01562C18.9062 5.01562 21.4688 6.03125 23.5 8.0625C25.5312 10.0938 26.5469 12.7969 26.5469 16.1719C26.5469 19.2812 25.5625 21.9844 23.5938 24.2812C21.625 26.5781 19.0781 27.7266 15.9531 27.7266C12.9531 27.7266 10.4141 26.625 8.33594 24.4219C6.25781 22.2188 5.21875 19.4531 5.21875 16.125ZM15.1562 6.42188C13.9219 6.42188 12.8516 6.82812 11.9453 7.64062C10.3828 9.0625 9.60156 11.5156 9.60156 15C9.60156 17.7812 10.2266 20.375 11.4766 22.7812C12.7422 25.1875 14.4922 26.3906 16.7266 26.3906C18.4766 26.3906 19.8203 25.5859 20.7578 23.9766C21.7109 22.3672 22.1875 20.2578 22.1875 17.6484C22.1875 14.9453 21.5859 12.3984 20.3828 10.0078C19.1797 7.61719 17.4375 6.42188 15.1562 6.42188Z" fill="black"/>
</g>
<defs>
<clipPath id="clip0_202_1460">
<rect width="32" height="32" fill="white"/>
</clipPath>
</defs>
</svg>
