<svg version="1.2" xmlns="http://www.w3.org/2000/svg" viewBox="0 0 500 500" width="500" height="500">
	<style>
		.s0 { fill: #f6f4f4 } 
		.s1 { fill: #0b0303 } 
		.s2 { fill: #ef0011 } 
		.s3 { fill: #f3e2e2 } 
		.s4 { fill: #f00212 } 
		.s5 { fill: #ba000d } 
		.s6 { fill: #faf1f1 } 
		.s7 { fill: #0b0100 } 
		.s8 { fill: #fbedee } 
		.s9 { fill: #faeaea } 
		.s10 { fill: #ab797d } 
		.s11 { fill: #f8eaea } 
		.s12 { fill: #902021 } 
		.s13 { fill: #f9eeee } 
		.s14 { fill: #f6ecec } 
		.s15 { fill: #080201 } 
		.s16 { fill: #150100 } 
		.s17 { fill: #f2e7e7 } 
		.s18 { fill: #fbe7e8 } 
		.s19 { fill: #060101 } 
		.s20 { fill: #f5e7e7 } 
		.s21 { fill: #fa999e } 
		.s22 { fill: #c46064 } 
		.s23 { fill: #180300 } 
		.s24 { fill: #f6dcdd } 
		.s25 { fill: #f2e6e6 } 
		.s26 { fill: #110200 } 
		.s27 { fill: #eb0011 } 
		.s28 { fill: #e20010 } 
		.s29 { fill: #ea0011 } 
		.s30 { fill: #760007 } 
		.s31 { fill: #f00514 } 
		.s32 { fill: #fcebeb } 
		.s33 { fill: #ecd6d6 } 
		.s34 { fill: #f5e3e3 } 
		.s35 { fill: #f5e4e4 } 
		.s36 { fill: #faf6f6 } 
		.s37 { fill: #e50010 } 
		.s38 { fill: #d5000f } 
		.s39 { fill: #f2e2e3 } 
		.s40 { fill: #ef1018 } 
		.s41 { fill: #f4e8e9 } 
		.s42 { fill: #ef0513 } 
		.s43 { fill: #f5e5e5 } 
		.s44 { fill: #f00413 } 
		.s45 { fill: #f4e9ea } 
		.s46 { fill: #ed0011 } 
		.s47 { fill: #e80011 } 
		.s48 { fill: #e60613 } 
		.s49 { fill: #f0d6d6 } 
		.s50 { fill: #fca9ac } 
		.s51 { fill: #9c000c } 
		.s52 { fill: #73393b } 
	</style>
	<g>
		<path fill-rule="evenodd" class="s0" d="m166.5 52.5q3.5 0 7 0 2.75 2.99 1.5 7-21.27 45.61-20.5 96 39.99 2.76 72 26.5 7.87 6.86 13.5 15.5 42.88-56.39 103.5-92.5 47.35-25.46 101-25 14.52 0.38 23.5 11.5 3.19 7.74 2 16-1.81 7.18-4.5 14-1 0-1 1-5.04 6.05-9 13-1 0-1 1 0 0.5 0 1-12.42 12.15-28.5 19-6.02 36.27-41.5 45-0.83 2.75 0 5 19.02-12.85 41.5-9 10.85-8.09 23.5-13 15.01-6.37 31-2.5 14.09 7.43 14 23.5-2.83 23.25-15.5 43-6.42 9.92-14 19-10.04 8.8-19.5 18-72.02 48.88-156.5 27-19.63 9.6-41.5 10.5-4.59 1.27-9 3 2 1 4 2 20.09-1.11 35 12 25.46 6.95 37.5 30.5 1.26 5.69-1 11-3.38 3.79-7.5 6.5 5.74 10.07 1.5 20.5-7.55 7.47-17.5 3.5-11.01-5.34-22.5-9.5-18.26 10-38.5 13-15.5 0-31 0-26.62-4.54-51-17-4.17 1.33-8 3.5-7.23 5.87-15 11-8.62 2.58-13.5-4.5-1.82 2.32-4.5 3.5-6.06 2.24-12 3.5-7.5 0-15 0-27.42-2.56-50-18.5-18-17.25-23-41.5 0-11.5 0-23 4.12-22.7 25-33 6.95-16.67 22-26.5-20.39-20.8-14.5-49.5 7.01-26.98 28.5-44.5 7.56-5.27 15-10.5-13.09-30.88-7.5-64 3.16-15.57 14.5-26.5 6.85-2.48 8 4.5-6.59 39.53 11 75.5 7.99-0.49 16-2 2.42-34.57 14.5-67.5 8.51-22.23 27.5-36z"/>
	</g>
	<g>
		<path fill-rule="evenodd" class="s1" d="m113.5 401.5q0.48-5.1-1-10-0.91 0.19-1 1-2.46 1.74-5 3.5 5.65 9.54-5 13-32.21 5.55-61-10-32.89-23.11-29.5-63.5 2.96-22.67 23.5-32 7.99-19.75 27-29.5-27.65-23.7-15.5-58.5 7.33-16.82 20.5-29.5 10.79-8.14 22-15.5-16.49-37.08-5.5-76 3.19-6.13 7.5-11.5 1.48-0.89 2 1-5.69 41.09 12.5 78.5 1 1 2 2 9.97-3.24 20.5-4 2 0 4 0 0-7.5 0-15 0.99-42.22 24.5-77 6.12-7.12 14-12-4.65 13.43-10 27-11.93 37.6-9.5 77 49.38 0.7 83.5 36 2.75 4.5 5.5 9 38.99-52.24 93-88.5 45.84-29.03 100-32.5 15.69-1.56 29 6.5 5.68 7.29 3.5 16.5-10.38 33.62-43.5 45-4.39 37.33-41 45-0.79 8.63-6 15.5 1.91 1.83 4.5 2.5 22.27-17.25 50.5-14.5 12.93-9.41 28-15 36.22-8.28 31.5 28.5-15.19 51.69-62.5 77.5-65.92 35.87-138 15.5-19.67 10.42-42 10.5-8.39 2.88-17 5 3.58 6.08 10 9 20.92-1.14 36 13 22.67 5.23 34.5 25.5 3.33 7.13-3.5 11.5-3.88 1.8-8 3 7.36 8.45 6.5 19.5-4.43 5.66-11.5 3.5-12.84-5.67-26-10.5-39.4 21.02-83 10.5-18.85-5.78-36.5-14.5-13.65 4.14-23.5 14.5-9.51 3.74-11-6.5z"/>
	</g>
	<g>
		<path fill-rule="evenodd" class="s2" d="m153.5 173.5q24.62 1.46 46 13.5 12.11 8.1 17.5 21.5 0.74 2.45 0.5 5 0.09 0.81 1 1 1.48-4.9 1-10 5.04 10.48 1.5 22-9.81 27.86-35.5 42.5-26.17 14.97-56 19.5-2.77-0.4-2 1 2.86 1.27 6 1 25.64 1.53 48.5-10 0.34 10.08 2 20 1.08 5.76 5 10 1 1.5 0 3-31.11 20.84-68.5 17.5-23.7-5.7-32.5-28.5-4.39-9.18-3.5-19 15.41 6.23 32 4.5-20.68-6.39-39-18-34.81-27.22-12.5-65.5 11.84-14.83 29-23 4.21 7.66 11.5 12.5 3 1 6 0-26.04-34.62-29-78-0.13-8.46 2-16.5 1 6.5 2 13 3.43 39.53 24.5 73 2.03 2.28 4.5 4 0.5-1.25 1-2.5-1.27-6.54-5-12 0.5-0.75 1-1.5 9.72-3.43 20-4 0.55 10.34 8 17.5 1.94 0.74 4 0.5-17.8-64.6 16.5-122 0.98-1.79 1.5 0-28.21 56.64-13.5 118 1.08 1.43 2.5 0.5 2.21-4.98 2-10.5z"/>
	</g>
	<g>
		<path fill-rule="evenodd" class="s3" d="m454.5 97.5q-18.37-2.97-37-1.5-16.14 2.08-32 5.5 32.38-14.09 67-7.5 1.98 1.22 2 3.5z"/>
	</g>
	<g>
		<path fill-rule="evenodd" class="s4" d="m454.5 97.5q-1.33 11.18-8.5 20-21.81 26.28-55.5 32-1.11-0.2-2 0.5 2.31 2.82 5.5 4.5 1 2 0 4-9.56 11.3-19.5 20 19.71-8.72 31-27 2.68-0.43 5 1-14.24 30.97-48 36.5-9.93 1.71-20 1.5-6.8-0.48-13 1 5.81 6.92 14 11-10.78 16.03-27 26.5 27.16-7.4 38-33.5 4.34 1.35 9 1-9.08 23.84-33 33.5-18.45 6.41-38 7 22.59 8.92 45-1 12.05-5.52 24-11 9.01-1.79 17 2.5 5.28-4.38 11-8 12.8-6.07 27-5 0 0.5 0 1-19.34 2.69-34 15.5 0.5 0.25 1 0.5 17.79-8.09 36-15 2.71-0.79 5-2 2.5-1 5-2 5.53-4.04 11-8 11.7-4.18 24-6.5 7.78-1.36 15 1.5-2.97 18.45-13.5 34-34.92 49.37-94.5 62.5-59.27 12.45-108-23-15.53-12.52-21.5-31.5-2.47-14.26 4-27-3.15 24.41 14 42-4.92-10.28-7-22-1.97-17.63 7-33 47.28-69.5 125.5-100 15.86-3.42 32-5.5 18.63-1.47 37 1.5z"/>
	</g>
	<g>
		<path fill-rule="evenodd" class="s5" d="m86.5 112.5q-1-6.5-2-13 0.7-5.34 3.5-10-1.8 11.32-1.5 23z"/>
	</g>
	<g>
		<path fill-rule="evenodd" class="s6" d="m433.5 97.5q2.22-0.39 4 1-10 13.75-27 14-0.24-2.06 0.5-4 10.3-7.78 22.5-11z"/>
	</g>
	<g>
		<path fill-rule="evenodd" class="s7" d="m407.5 101.5q2.55-0.24 5 0.5-52.87 18.31-84.5 64.5-6.94 7.95-17 11-9.38-2.38-5-11 40.38-48.62 101.5-65z"/>
	</g>
	<g>
		<path fill-rule="evenodd" class="s8" d="m402.5 112.5q3 0 6 0-2.56 8.8-12 7-0.22-1.58 0.5-3 2.72-2.22 5.5-4z"/>
	</g>
	<g>
	</g>
	<g>
	</g>
	<g>
	</g>
	<g>
	</g>
	<g>
	</g>
	<g>
	</g>
	<g>
	</g>
	<g>
		<path fill-rule="evenodd" class="s9" d="m390.5 149.5q7.77 0.52 15 2-11.29 18.28-31 27 9.94-8.7 19.5-20 1-2 0-4-3.19-1.68-5.5-4.5 0.89-0.7 2-0.5z"/>
	</g>
	<g>
		<path fill-rule="evenodd" class="s10" d="m131.5 145.5q0 7.5 0 15-2 0-4 0 1.06-1.36 3-1-0.48-7.29 1-14z"/>
	</g>
	<g>
		<path fill-rule="evenodd" class="s11" d="m219.5 204.5q-1 4.5-2 9 0.24-2.55-0.5-5-5.39-13.4-17.5-21.5-21.38-12.04-46-13.5 0-2 0-4 36.7-0.86 61.5 26 3.06 4.11 4.5 9z"/>
	</g>
	<g>
		<path fill-rule="evenodd" class="s12" d="m329.5 191.5q6.2-1.48 13-1-3.5 1-7 2-2.9-0.97-6-1z"/>
	</g>
	<g>
		<path fill-rule="evenodd" class="s13" d="m329.5 191.5q3.1 0.03 6 1 9.55 1.31 19 3-10.84 26.1-38 33.5 16.22-10.47 27-26.5-8.19-4.08-14-11z"/>
	</g>
	<g>
		<path fill-rule="evenodd" class="s14" d="m479.5 199.5q-7.22-2.86-15-1.5-12.3 2.32-24 6.5 15.6-13.11 36-11.5 3.63 2.26 3 6.5z"/>
	</g>
	<g>
		<path fill-rule="evenodd" class="s15" d="m193.5 216.5q-12.01 1.52-22 8-2.83 1.29-5.5 3-4.79-4.57-6.5-11-5.04 2.2-9.5-1-3.47-6.4 3.5-3 4.4 0.05 8-2.5 9.22-9.73 21-16 6.3-3.24 12 1-2.9 1.22-6 1.5 2.61 5.74 4.5 12 0.75 3.97 0.5 8z"/>
	</g>
	<g>
		<path fill-rule="evenodd" class="s16" d="m458.5 200.5q3.04-0.24 6 0.5-18.02 7.05-33 19-1 1-2 0 11.53-14.3 29-19.5z"/>
	</g>
	<g>
		<path fill-rule="evenodd" class="s17" d="m178.5 202.5q6.85-0.63 4.5 6-7.6 5.09-6-4 1.08-0.82 1.5-2z"/>
	</g>
	<g>
		<path fill-rule="evenodd" class="s18" d="m469.5 201.5q-2.26 13.65-14.5 22-0.47-2.11 1-4 7.08-8.82 13.5-18z"/>
	</g>
	<g>
		<path fill-rule="evenodd" class="s19" d="m74.5 208.5q8.22-0.2 16 2.5 11.8 4.26 23.5 8.5 5.65-0.63 8-6 2.41 11.83-9.5 13 0.55 3.61 2 7-0.5 1-1 2-4.67-0.94-9.5-1-9.96 0.44-19.5 2.5-5.05-3.55-6.5-9.5-0.75-7.48-0.5-15-6.47 0.15-3-4z"/>
	</g>
	<g>
		<path fill-rule="evenodd" class="s20" d="m429.5 212.5q-2.5 1-5 2-4 0-8 0-14.2-1.07-27 5 15.27-12.44 35-9.5 2.72 1.14 5 2.5z"/>
	</g>
	<g>
		<path fill-rule="evenodd" class="s21" d="m219.5 204.5q0.48 5.1-1 10-0.91-0.19-1-1 1-4.5 2-9z"/>
	</g>
	<g>
		<path fill-rule="evenodd" class="s22" d="m416.5 215.5q0-0.5 0-1 4 0 8 0-2.29 1.21-5 2-1.06-1.36-3-1z"/>
	</g>
	<g>
		<path fill-rule="evenodd" class="s23" d="m416.5 215.5q1.94-0.36 3 1-18.21 6.91-36 15-0.5-0.25-1-0.5 14.66-12.81 34-15.5z"/>
	</g>
	<g>
		<path fill-rule="evenodd" class="s24" d="m193.5 216.5q4.39 1.3 9 3-0.79 1.04-2 1.5-14.77-0.13-29 3.5 9.99-6.48 22-8z"/>
	</g>
	<g>
		<path fill-rule="evenodd" class="s25" d="m98.5 219.5q6.09-0.98 6 5-3.04 0.24-6-0.5-1.84-2.24 0-4.5z"/>
	</g>
	<g>
		<path fill-rule="evenodd" class="s26" d="m176.5 229.5q8.85-1.14 16 4-4.98 1.75-10 0-13.56 14.3-33 19.5-28.06 8.2-55 1 3.32-6.4 10-5.5-0.71 1.47-2 2.5 36.58 4.24 69-14 4.68-2.13 1-5 2.35-0.91 4-2.5z"/>
	</g>
	<g>
		<path fill-rule="evenodd" class="s27" d="m231.5 238.5q1.31-0.2 2 1-3.13 28.62 15 51-16.25 6.75-27-7.5-1-1-2 0 14.73 29.34 46 18.5 1.79 0.52 0 1.5-37.63 16.82-50.5-22.5-5.1-26.48 16.5-42z"/>
	</g>
	<g>
		<path fill-rule="evenodd" class="s28" d="m243.5 259.5q5.88 3.62 10.5 9 12.96 18.46 32.5 29.5-31.51-7.75-43-38.5z"/>
	</g>
	<g>
		<path fill-rule="evenodd" class="s29" d="m203.5 266.5q1.31-0.2 2 1-2.48 22.08 12 39-6.99 1.35-14 0.5 4.59 4.08 10 7-8.71 0.28-14.5-6.5-16.98-22.76 4.5-41z"/>
	</g>
	<g>
		<path fill-rule="evenodd" class="s27" d="m58.5 284.5q9.6-2.17 14.5 6 5.15 14.18-1 28-11.05-13.14-27.5-17.5 5.15-9.9 14-16.5z"/>
	</g>
	<g>
		<path fill-rule="evenodd" class="s30" d="m129.5 288.5q2 1 4 2-3.14 0.27-6-1-0.77-1.4 2-1z"/>
	</g>
	<g>
		<path fill-rule="evenodd" class="s31" d="m56.5 313.5q3.43 5.43 8 10-4.88 0.44-8 4-1.11-0.2-2 0.5 28.91 1.65 38 28.5 0.45 3.16-1 6-11.02-7.01-23-12.5-4.75-3.75-9.5-7.5 1.47 7.42 7 13 8.34 27.18 32 43 0.99 2.41-1.5 3.5-40.25 5.58-66.5-25.5-15.67-22.01-8-48 10.46-23.87 34.5-15z"/>
	</g>
	<g>
		<path fill-rule="evenodd" class="s32" d="m45.5 317.5q4.03-0.25 8 0.5 2.46 4.16-2 6-6.04 2.01-9-3.5 1.26-1.85 3-3z"/>
	</g>
	<g>
		<path fill-rule="evenodd" class="s33" d="m56.5 313.5q4.91 3.14 9.5 7 0.88 2.25-1.5 3-4.57-4.57-8-10z"/>
	</g>
	<g>
		<path fill-rule="evenodd" class="s34" d="m198.5 319.5q-11.1 11.56-27 15.5-15.75 4.88-32 2.5 28.81-3.69 54-18.5 2.65-0.96 5 0.5z"/>
	</g>
	<g>
		<path fill-rule="evenodd" class="s4" d="m198.5 319.5q1.44 0.68 2.5 2 2.41 8.23 6 16 1.2 2.64-0.5 5-30.65 21.41-68 18.5-25.16-6.17-32.5-30.5 6.96 4.99 15.5 6.5 8.99 0.75 18 0.5 16.25 2.38 32-2.5 15.9-3.94 27-15.5z"/>
	</g>
	<g>
		<path fill-rule="evenodd" class="s35" d="m92.5 356.5q-9.09-26.85-38-28.5 0.89-0.7 2-0.5 25.47-4.89 35.5 19 0.75 4.98 0.5 10z"/>
	</g>
	<g>
		<path fill-rule="evenodd" class="s36" d="m72.5 335.5q3.62-0.38 5 3-4.22 1.83-5-3z"/>
	</g>
	<g>
		<path fill-rule="evenodd" class="s37" d="m223.5 336.5q5.59-0.48 11 1-4.04 4.16-8.5 8-5.99-3.8-2.5-9z"/>
	</g>
	<g>
		<path fill-rule="evenodd" class="s38" d="m90.5 334.5q0.59-1.54 2-0.5 3.94 5.45 9 10 7 6 14 12-6.91-1.7-13-6-6.21-7.72-12-15.5z"/>
	</g>
	<g>
		<path fill-rule="evenodd" class="s39" d="m261.5 346.5q-3.54-2.44-8-3.5-6.98-0.75-14-0.5 0.63-1.08 2-1.5 13.82-2.52 26 4-2.63 1.98-6 1.5z"/>
	</g>
	<g>
		<path fill-rule="evenodd" class="s40" d="m239.5 342.5q7.02-0.25 14 0.5 4.46 1.06 8 3.5-5.2 2.35-10 5.5-3.88 4.65-9 7.5-9.89-3.09-9.5-13 2.36-3.63 6.5-4z"/>
	</g>
	<g>
		<path fill-rule="evenodd" class="s41" d="m214.5 349.5q-21.43 15.48-48 16 22.82-5.9 43-18.5 3.64-1.12 5 2.5z"/>
	</g>
	<g>
		<path fill-rule="evenodd" class="s42" d="m214.5 349.5q5.96 7.2 13.5 13 1 1 0 2-28.58 23.34-65.5 20.5-18.15-4.24-27.5-19.5 1.13 0.94 2.5 1.5 14.7 1.42 29-1.5 26.57-0.52 48-16z"/>
	</g>
	<g>
		<path fill-rule="evenodd" class="s43" d="m302.5 373.5q-14.74-16.73-37-19-4.55 0.25-9 1 25.3-10.24 43.5 11 2.85 2.91 2.5 7z"/>
	</g>
	<g>
		<path fill-rule="evenodd" class="s44" d="m302.5 373.5q0.21 2.44-2 3.5-28.69 7.6-50.5-12.5-0.06-6.71 6.5-9 4.45-0.75 9-1 22.26 2.27 37 19z"/>
	</g>
	<g>
		<path fill-rule="evenodd" class="s45" d="m100.5 356.5q5.42 2.71 11 5.5-13.04 7.54-18.5 21.5-7.57-7.14-10.5-17 5.58 1.54 10 5.5 4.2 0.84 5.5-3.5 1.41-5.99 2.5-12z"/>
	</g>
	<g>
		<path fill-rule="evenodd" class="s8" d="m83.5 394.5q-18.9-10.15-29.5-29-1.54-3.52-2-7 5.79 2.39 10 7 7.82 16.63 21.5 29z"/>
	</g>
	<g>
		<path fill-rule="evenodd" class="s46" d="m232.5 365.5q17.6 6.19 10.5 23-10.6 10.42-25.5 11.5-25.94 3.21-49-9 36.75-1.65 64-25.5z"/>
	</g>
	<g>
		<path fill-rule="evenodd" class="s47" d="m113.5 367.5q7.7-0.01 9.5 7-9.69 7.19-18.5 15.5-7.23 5.76-5.5-3.5 3.12-12.84 14.5-19z"/>
	</g>
	<g>
		<path fill-rule="evenodd" class="s29" d="m126.5 380.5q7.88-0.4 12 6.5-8.5 7.25-17 14.5-5.62-12.55 5-21z"/>
	</g>
	<g>
		<path fill-rule="evenodd" class="s48" d="m283.5 385.5q3.22 2.95 7 5.5 2.8 4.03 6 7.5 0.42 2.77-2 4-15.5-9.75-31-19.5-1.79-0.98 0-1.5 9.96 2.49 20 4z"/>
	</g>
	<g>
		<path fill-rule="evenodd" class="s49" d="m283.5 385.5q8.71-1.27 11.5 7 1.22 2.9 1.5 6-3.2-3.47-6-7.5-3.78-2.55-7-5.5z"/>
	</g>
	<g>
		<path fill-rule="evenodd" class="s50" d="m83.5 394.5q1.88-0.06 3 1.5-2.25 0.88-3-1.5z"/>
	</g>
	<g>
		<path fill-rule="evenodd" class="s51" d="m258.5 392.5q3.51 0.41 0 2.5-2.33 1.93-5 2 2.61-2.28 5-4.5z"/>
	</g>
	<g>
		<path fill-rule="evenodd" class="s52" d="m111.5 392.5q0.09-0.81 1-1 1.48 4.9 1 10-1-4.5-2-9z"/>
	</g>
</svg>